<?xml version="1.0" encoding="utf-8"?>
<!-- Generator: Adobe Illustrator 28.3.0, SVG Export Plug-In . SVG Version: 6.00 Build 0)  -->
<svg version="1.1" id="Capa_1" xmlns="http://www.w3.org/2000/svg" xmlns:xlink="http://www.w3.org/1999/xlink" x="0px" y="0px"
	 viewBox="0 0 1200 1200" style="enable-background:new 0 0 1200 1200;" xml:space="preserve">
<style type="text/css">
	.st0{fill:#FFFFFF;}
</style>
<g>
	<path class="st0" d="M799.04,637.35l-14.05-8.21l-13.57-9.02l-14.31-6.04l-13.56-7.5l-13.59-7.46l-13.92-6.83l-14.63-5.17
		l-14.44-5.95l-15.95-0.13l-15.09-3.25l-14.96-4.15l-15.48-1.35l-14.49-6.66l-16.44-1.54l-15.92,4.09l-16.08,1.57L547,572.84
		l-14.83,5.86l-15.22,4.34l-15.18,4.47l-15.82,2.3L471.26,596l-15.92,2.02l-15.23,4.35l-14.21,7.66l-14.93,5.29l-15.42,3.7
		l-15.04,4.91l-15.09,4.78l-15.1,4.75l-14.99,5.1l-14.97,3.72l11.06,7.83l8.75,10.96l7.26,12.47l15.99,7.19l13.19,10.77l14.06,9.55
		l13.91,9.79l13.26,10.99l14.46,6.5l-5.37,12.02l-6.66,14.1l-13.76,6.81l-11.57,9.97l-1.66,14.16l12.49,5.24l14.73,0.7l13.71-5.53
		l12.46-7.74l10.15-10.42l12.15-8.33l13.4-8.22l15.01,5.06l17,5.67l17.17,5.3l16.89,7.29l-0.55,18.54l-3.33,18.31l4.74,18.2
		l4.24,13.28l14.35-1.45l13.61-4.55l2.09-18.06l-3.47-17.78l1.19-13.62l9.02-9.54l13.39-0.99l14.24-7.69l15.71-1.89l14.76-5.3
		l15.62-2.38l14.39-8.19l13.14,10.83l14.76,7.71l13.23,9.78l14.3,8.05l11.22,3.41l11.35-3l3.82-13.95l-6.33-14.97l-13.18-8.4
		l-9.53-12.22l-6.02-13.18l9.06-12.46l13.57-7.89l13.89-7.46l13.47-8.43l13.6-8.38l11.87-10.57l13.55-8.18l13.68-8.66l-14.79-7.47
		L799.04,637.35z M498.65,628.96l-3.09,15.95l-4.29,15.86l3.38,16.3l-0.61,16.11l3.78,15.79l0.73,17.45L483.2,720l-12.94-8.01
		l-13.39-7.19l-13.21-7.54l-11.18-10.7l-13.57-6.89l-10.73-10.66l-12.12-9.43l13.4-6.75l13.32-6.61l14.15-4.58l14.17-4.53
		l14.38-4.03l13.22-6.84l13.99-4.97l12.92-6.61L498.65,628.96z M742.95,664.66l-11.05,12l-11.77,11.17l-11.9,11.05l-13.38,9.22
		l-13.51,9.01l-13.94,8.39l-13.49,8.38l-15.13,5.02l-5.01-2.56l14.09-9.63l6.53-16.08l8.62-14.53l2.18-16.76l2.53-16.87l-5.37-16.38
		l-1.18-16.7l-4.75-17.51l15.42-2.74l14.24,1.21l12.67,6.28l11.99,6.95l11.82,8.26l9.04,11.54l12.01,8L742.95,664.66z"/>
	<polygon class="st0" points="557.81,458.41 565.16,469.89 570.94,481.97 574.97,494.8 575.77,508.86 576.27,523.28 578.06,539.21 
		585.32,542.16 588.32,532.15 589.87,520.01 593.2,508.61 594.46,496.35 597.62,484.9 601.11,471.62 605.95,458.98 613.21,447.72 
		624.48,437.97 623.13,427.46 612.74,417.08 605.2,405.63 599.2,393.24 595.25,380.11 594.13,365.87 586.4,348.23 579.56,365.23 
		574.98,376.89 569.94,388.35 563.89,399.2 558.07,408.92 551.14,417.79 542.62,426.72 542.07,442.84 551.31,450.36 	"/>
	<polygon class="st0" points="875.71,485.81 863.89,492.28 851.57,495.66 838.78,496.62 825.98,494.89 810.04,491.12 812.28,504 
		815.66,518.24 810.91,531.71 807.35,538.36 797.54,549.09 787.02,559.77 776.44,571.03 770.96,586.65 797.67,571.43 808.02,565.48 
		819.11,561.41 832.33,558.36 845.37,556.55 871.89,561.66 871.51,547.67 869.05,528.94 872.35,517.92 877.32,507.19 884.07,497.5 
		896.06,484.08 	"/>
	<polygon class="st0" points="313.33,544.82 329.35,546.28 343.99,544.92 357.68,547.78 369.54,555.44 378.8,562.93 388.37,570.11 
		403.78,581.29 396.73,560.57 392.03,549.63 388.42,538.33 383.69,525.13 383.01,511.41 386.6,495.1 371.01,491.06 358.15,487.53 
		346.02,482.24 333.93,475.96 322.97,467.68 305.4,456.79 312.43,476.24 318.09,489.18 321.25,502.63 323.04,516.4 321.62,529.83 	
		"/>
	<polygon class="st0" points="459.48,524.99 474.38,527.2 489.87,516.71 493.27,498.39 487.27,484.5 474.09,477.51 458.8,475.98 
		447.38,486.11 446.25,501.37 449.32,514.66 	"/>
	<polygon class="st0" points="707.87,535.88 724.77,526.16 733.27,509.11 725.37,492.53 708.52,485.5 691.55,493.19 687.87,511.12 
		692.71,526.73 	"/>
</g>
</svg>
